<svg width="21" height="21" viewBox="0 0 21 21" fill="none" xmlns="http://www.w3.org/2000/svg">
<path d="M10.5 21C16.2901 21 21 16.2901 21 10.5C21 4.70995 16.2901 0 10.5 0C4.70995 0 0 4.71077 0 10.5C0 16.2892 4.70995 21 10.5 21ZM10.5 1.62664C15.3921 1.62664 19.3734 5.60704 19.3734 10.5C19.3734 15.393 15.3921 19.3734 10.5 19.3734C5.60786 19.3734 1.62664 15.393 1.62664 10.5C1.62664 5.60704 5.60704 1.62664 10.5 1.62664Z" fill="#3515b0"/>
<path d="M6.43331 11.3865H9.68659V14.6398C9.68659 15.0887 10.0501 15.4531 10.4999 15.4531C10.9497 15.4531 11.3133 15.0887 11.3133 14.6398V11.3865H14.5665C15.0163 11.3865 15.3799 11.0221 15.3799 10.5732C15.3799 10.1242 15.0163 9.75983 14.5665 9.75983H11.3133V6.50655C11.3133 6.05759 10.9497 5.69321 10.4999 5.69321C10.0501 5.69321 9.68659 6.05759 9.68659 6.50655V9.75983H6.43331C5.98353 9.75983 5.61997 10.1242 5.61997 10.5732C5.61997 11.0221 5.98353 11.3865 6.43331 11.3865Z" fill="#3515b0"/>
</svg>
